<?xml version="1.0" encoding="UTF-8" standalone="no"?><svg xmlns="http://www.w3.org/2000/svg" xmlns:xlink="http://www.w3.org/1999/xlink" contentStyleType="text/css" height="575px" preserveAspectRatio="none" style="width:906px;height:575px;background:#FFFFFF;" version="1.1" viewBox="0 0 906 575" width="906px" zoomAndPan="magnify"><defs/><g><!--cluster oop.collections--><g id="cluster_oop.collections"><path d="M8.5,6 L129.5,6 A3.75,3.75 0 0 1 132,8.5 L139,28.2969 L690.5,28.2969 A2.5,2.5 0 0 1 693,30.7969 L693,547.5 A2.5,2.5 0 0 1 690.5,550 L8.5,550 A2.5,2.5 0 0 1 6,547.5 L6,8.5 A2.5,2.5 0 0 1 8.5,6 " fill="none" style="stroke:#000000;stroke-width:1.5;"/><line style="stroke:#000000;stroke-width:1.5;" x1="6" x2="139" y1="28.2969" y2="28.2969"/><text fill="#000000" font-family="sans-serif" font-size="14" font-weight="bold" lengthAdjust="spacing" textLength="120" x="10" y="20.9951">oop.collections</text></g><!--cluster java.lang--><g id="cluster_java.lang"><path d="M719.5,22.5 L789.5,22.5 A3.75,3.75 0 0 1 792,25 L799,44.7969 L896.5,44.7969 A2.5,2.5 0 0 1 899,47.2969 L899,135 A2.5,2.5 0 0 1 896.5,137.5 L719.5,137.5 A2.5,2.5 0 0 1 717,135 L717,25 A2.5,2.5 0 0 1 719.5,22.5 " fill="none" style="stroke:#000000;stroke-width:1.5;"/><line style="stroke:#000000;stroke-width:1.5;" x1="717" x2="799" y1="44.7969" y2="44.7969"/><text fill="#000000" font-family="sans-serif" font-size="14" font-weight="bold" lengthAdjust="spacing" textLength="69" x="721" y="37.4951">java.lang</text></g><!--class oop.collections.Surgery--><a href="Surgery.html" target="_top" title="Surgery.html" xlink:actuate="onRequest" xlink:href="Surgery.html" xlink:show="new" xlink:title="Surgery.html" xlink:type="simple"><g id="elem_oop.collections.Surgery"><rect codeLine="3" fill="#F1F1F1" height="243.5625" id="oop.collections.Surgery" rx="2.5" ry="2.5" style="stroke:#181818;stroke-width:0.5;" width="268" x="362" y="290"/><ellipse cx="465.25" cy="306" fill="#ADD1B2" rx="11" ry="11" style="stroke:#181818;stroke-width:1.0;"/><path d="M468.2188,311.6406 Q467.6406,311.9375 467,312.0781 Q466.3594,312.2344 465.6563,312.2344 Q463.1563,312.2344 461.8281,310.5938 Q460.5156,308.9375 460.5156,305.8125 Q460.5156,302.6875 461.8281,301.0313 Q463.1563,299.375 465.6563,299.375 Q466.3594,299.375 467,299.5313 Q467.6563,299.6875 468.2188,299.9844 L468.2188,302.7031 Q467.5938,302.125 467,301.8594 Q466.4063,301.5781 465.7813,301.5781 Q464.4375,301.5781 463.75,302.6563 Q463.0625,303.7188 463.0625,305.8125 Q463.0625,307.9063 463.75,308.9844 Q464.4375,310.0469 465.7813,310.0469 Q466.4063,310.0469 467,309.7813 Q467.5938,309.5 468.2188,308.9219 L468.2188,311.6406 Z " fill="#000000"/><text fill="#000000" font-family="sans-serif" font-size="14" lengthAdjust="spacing" textLength="53" x="485.75" y="310.8467">Surgery</text><line style="stroke:#181818;stroke-width:0.5;" x1="363" x2="629" y1="322" y2="322"/><rect fill="none" height="6" style="stroke:#C82930;stroke-width:1.0;" width="6" x="370" y="332.6484"/><text fill="#000000" font-family="sans-serif" font-size="14" lengthAdjust="spacing" textLength="38" x="382" y="338.9951">id: int</text><rect fill="none" height="6" style="stroke:#C82930;stroke-width:1.0;" width="6" x="370" y="348.9453"/><text fill="#000000" font-family="sans-serif" font-size="14" lengthAdjust="spacing" textLength="74" x="382" y="355.292">title: String</text><rect fill="none" height="6" style="stroke:#C82930;stroke-width:1.0;" width="6" x="370" y="365.2422"/><text fill="#000000" font-family="sans-serif" font-size="14" lengthAdjust="spacing" textLength="79" x="382" y="371.5889">severity: int</text><rect fill="none" height="6" style="stroke:#C82930;stroke-width:1.0;" width="6" x="370" y="381.5391"/><text fill="#000000" font-family="sans-serif" font-size="14" lengthAdjust="spacing" textLength="83" x="382" y="387.8857">duration: int</text><rect fill="none" height="6" style="stroke:#C82930;stroke-width:1.0;" width="6" x="370" y="397.8359"/><text fill="#000000" font-family="sans-serif" font-size="14" lengthAdjust="spacing" textLength="156" x="382" y="404.1826">needsDoctor: boolean</text><line style="stroke:#181818;stroke-width:0.5;" x1="363" x2="629" y1="411.4844" y2="411.4844"/><ellipse cx="373" cy="425.1328" fill="#84BE84" rx="3" ry="3" style="stroke:#038048;stroke-width:1.0;"/><text fill="#000000" font-family="sans-serif" font-size="14" lengthAdjust="spacing" textLength="242" x="382" y="428.4795">Surgery(int, String, int, int, boolean)</text><ellipse cx="373" cy="441.4297" fill="#84BE84" rx="3" ry="3" style="stroke:#038048;stroke-width:1.0;"/><text fill="#000000" font-family="sans-serif" font-size="14" lengthAdjust="spacing" textLength="71" x="382" y="444.7764">getId(): int</text><ellipse cx="373" cy="457.7266" fill="#84BE84" rx="3" ry="3" style="stroke:#038048;stroke-width:1.0;"/><text fill="#000000" font-family="sans-serif" font-size="14" lengthAdjust="spacing" textLength="111" x="382" y="461.0732">getTitle(): String</text><ellipse cx="373" cy="474.0234" fill="#84BE84" rx="3" ry="3" style="stroke:#038048;stroke-width:1.0;"/><text fill="#000000" font-family="sans-serif" font-size="14" lengthAdjust="spacing" textLength="113" x="382" y="477.3701">getSeverity(): int</text><ellipse cx="373" cy="490.3203" fill="#84BE84" rx="3" ry="3" style="stroke:#038048;stroke-width:1.0;"/><text fill="#000000" font-family="sans-serif" font-size="14" lengthAdjust="spacing" textLength="118" x="382" y="493.667">getDuration(): int</text><ellipse cx="373" cy="506.6172" fill="#84BE84" rx="3" ry="3" style="stroke:#038048;stroke-width:1.0;"/><text fill="#000000" font-family="sans-serif" font-size="14" lengthAdjust="spacing" textLength="190" x="382" y="509.9639">getNeedsDoctor(): boolean</text><ellipse cx="373" cy="522.9141" fill="#84BE84" rx="3" ry="3" style="stroke:#038048;stroke-width:1.0;"/><text fill="#000000" font-family="sans-serif" font-size="14" lengthAdjust="spacing" textLength="168" x="382" y="526.2607">compareTo(Surgery): int</text></g></a><!--class oop.collections.SurgeryPlanner--><a href="SurgeryPlanner.html" target="_top" title="SurgeryPlanner.html" xlink:actuate="onRequest" xlink:href="SurgeryPlanner.html" xlink:show="new" xlink:title="SurgeryPlanner.html" xlink:type="simple"><g id="elem_oop.collections.SurgeryPlanner"><rect codeLine="18" fill="#F1F1F1" height="96.8906" id="oop.collections.SurgeryPlanner" rx="2.5" ry="2.5" style="stroke:#181818;stroke-width:0.5;" width="334" x="343" y="41"/><ellipse cx="453.25" cy="57" fill="#ADD1B2" rx="11" ry="11" style="stroke:#181818;stroke-width:1.0;"/><path d="M456.2188,62.6406 Q455.6406,62.9375 455,63.0781 Q454.3594,63.2344 453.6563,63.2344 Q451.1563,63.2344 449.8281,61.5938 Q448.5156,59.9375 448.5156,56.8125 Q448.5156,53.6875 449.8281,52.0313 Q451.1563,50.375 453.6563,50.375 Q454.3594,50.375 455,50.5313 Q455.6563,50.6875 456.2188,50.9844 L456.2188,53.7031 Q455.5938,53.125 455,52.8594 Q454.4063,52.5781 453.7813,52.5781 Q452.4375,52.5781 451.75,53.6563 Q451.0625,54.7188 451.0625,56.8125 Q451.0625,58.9063 451.75,59.9844 Q452.4375,61.0469 453.7813,61.0469 Q454.4063,61.0469 455,60.7813 Q455.5938,60.5 456.2188,59.9219 L456.2188,62.6406 Z " fill="#000000"/><text fill="#000000" font-family="sans-serif" font-size="14" lengthAdjust="spacing" textLength="105" x="473.75" y="61.8467">SurgeryPlanner</text><line style="stroke:#181818;stroke-width:0.5;" x1="344" x2="676" y1="73" y2="73"/><line style="stroke:#181818;stroke-width:0.5;" x1="344" x2="676" y1="81" y2="81"/><ellipse cx="354" cy="94.6484" fill="#84BE84" rx="3" ry="3" style="stroke:#038048;stroke-width:1.0;"/><text fill="#000000" font-family="sans-serif" font-size="14" lengthAdjust="spacing" textLength="206" x="363" y="97.9951">registerSurgery(Surgery): void</text><ellipse cx="354" cy="110.9453" fill="#84BE84" rx="3" ry="3" style="stroke:#038048;stroke-width:1.0;"/><text fill="#000000" font-family="sans-serif" font-size="14" lengthAdjust="spacing" textLength="224" x="363" y="114.292">unregisterSurgery(Surgery): void</text><ellipse cx="354" cy="127.2422" fill="#84BE84" rx="3" ry="3" style="stroke:#038048;stroke-width:1.0;"/><text fill="#000000" font-family="sans-serif" font-size="14" lengthAdjust="spacing" textLength="308" x="363" y="130.5889">getSurgeriesLongerThan(int): List&lt;Surgery&gt;</text></g></a><!--class oop.collections.Main--><a href="Main.html" target="_top" title="Main.html" xlink:actuate="onRequest" xlink:href="Main.html" xlink:show="new" xlink:title="Main.html" xlink:type="simple"><g id="elem_oop.collections.Main"><rect codeLine="24" fill="#F1F1F1" height="80.5938" id="oop.collections.Main" rx="2.5" ry="2.5" style="stroke:#181818;stroke-width:0.5;" width="286" x="22" y="49"/><ellipse cx="144.75" cy="65" fill="#ADD1B2" rx="11" ry="11" style="stroke:#181818;stroke-width:1.0;"/><path d="M147.7188,70.6406 Q147.1406,70.9375 146.5,71.0781 Q145.8594,71.2344 145.1563,71.2344 Q142.6563,71.2344 141.3281,69.5938 Q140.0156,67.9375 140.0156,64.8125 Q140.0156,61.6875 141.3281,60.0313 Q142.6563,58.375 145.1563,58.375 Q145.8594,58.375 146.5,58.5313 Q147.1563,58.6875 147.7188,58.9844 L147.7188,61.7031 Q147.0938,61.125 146.5,60.8594 Q145.9063,60.5781 145.2813,60.5781 Q143.9375,60.5781 143.25,61.6563 Q142.5625,62.7188 142.5625,64.8125 Q142.5625,66.9063 143.25,67.9844 Q143.9375,69.0469 145.2813,69.0469 Q145.9063,69.0469 146.5,68.7813 Q147.0938,68.5 147.7188,67.9219 L147.7188,70.6406 Z " fill="#000000"/><text fill="#000000" font-family="sans-serif" font-size="14" lengthAdjust="spacing" textLength="32" x="165.25" y="69.8467">Main</text><line style="stroke:#181818;stroke-width:0.5;" x1="23" x2="307" y1="81" y2="81"/><line style="stroke:#181818;stroke-width:0.5;" x1="23" x2="307" y1="89" y2="89"/><ellipse cx="33" cy="102.6484" fill="#84BE84" rx="3" ry="3" style="stroke:#038048;stroke-width:1.0;"/><text fill="#000000" font-family="sans-serif" font-size="14" lengthAdjust="spacing" text-decoration="underline" textLength="130" x="42" y="105.9951">main(String[]): void</text><rect fill="#F24D5C" height="6" style="stroke:#C82930;stroke-width:1.0;" width="6" x="30" y="115.9453"/><text fill="#000000" font-family="sans-serif" font-size="14" lengthAdjust="spacing" text-decoration="underline" textLength="260" x="42" y="122.292">displaySurgeries(List&lt;Surgery&gt;): void</text></g></a><!--class java.lang.Comparable--><g id="elem_java.lang.Comparable"><rect codeLine="35" fill="#F1F1F1" height="64.2969" id="java.lang.Comparable" rx="2.5" ry="2.5" style="stroke:#181818;stroke-width:0.5;" width="150" x="733" y="57.5"/><ellipse cx="758.8" cy="73.5" fill="#B4A7E5" rx="11" ry="11" style="stroke:#181818;stroke-width:1.0;"/><path d="M754.7219,69.2656 L754.7219,67.1094 L762.1125,67.1094 L762.1125,69.2656 L759.6438,69.2656 L759.6438,77.3438 L762.1125,77.3438 L762.1125,79.5 L754.7219,79.5 L754.7219,77.3438 L757.1906,77.3438 L757.1906,69.2656 L754.7219,69.2656 Z " fill="#000000"/><text fill="#000000" font-family="sans-serif" font-size="14" font-style="italic" lengthAdjust="spacing" textLength="83" x="775.2" y="78.3467">Comparable</text><rect fill="#FFFFFF" height="15.9688" style="stroke:#181818;stroke-width:1.0;stroke-dasharray:2.0,2.0;" width="9" x="877" y="54.5"/><text fill="#000000" font-family="sans-serif" font-size="12" font-style="italic" lengthAdjust="spacing" textLength="7" x="878" y="66.6387">T</text><line style="stroke:#181818;stroke-width:0.5;" x1="734" x2="882" y1="89.5" y2="89.5"/><line style="stroke:#181818;stroke-width:0.5;" x1="734" x2="882" y1="97.5" y2="97.5"/><ellipse cx="744" cy="111.1484" fill="#84BE84" rx="3" ry="3" style="stroke:#038048;stroke-width:1.0;"/><text fill="#000000" font-family="sans-serif" font-size="14" font-style="italic" lengthAdjust="spacing" textLength="124" x="753" y="114.4951">compareTo(T): int</text></g><!--reverse link java.lang.Comparable to oop.collections.Surgery--><g id="link_java.lang.Comparable_oop.collections.Surgery"><path codeLine="29" d="M781.2,139.65 C760.41,175.28 729.41,223.42 695,260 C675.54,280.69 653.01,300.68 630.25,318.97 " fill="none" id="java.lang.Comparable-backto-oop.collections.Surgery" style="stroke:#181818;stroke-width:1.0;stroke-dasharray:7.0,7.0;"/><polygon fill="none" points="775.39,135.7,791.38,121.8,787.55,142.64,775.39,135.7" style="stroke:#181818;stroke-width:1.0;"/></g><!--link oop.collections.SurgeryPlanner to oop.collections.Surgery--><g id="link_oop.collections.SurgeryPlanner_oop.collections.Surgery"><path codeLine="30" d="M507.92,138.14 C506.23,176.74 503.78,232.98 501.53,284.39 " fill="none" id="oop.collections.SurgeryPlanner-to-oop.collections.Surgery" style="stroke:#181818;stroke-width:1.0;"/><polygon fill="#181818" points="501.3,289.66,505.7068,280.8521,501.5283,284.6652,497.7152,280.4867,501.3,289.66" style="stroke:#181818;stroke-width:1.0;"/><text fill="#000000" font-family="sans-serif" font-size="13" lengthAdjust="spacing" textLength="59" x="567" y="196.0669">surgeries</text><text fill="#000000" font-family="sans-serif" font-size="13" lengthAdjust="spacing" textLength="143" x="525" y="211.1997">allRegisteredSurgeries</text><text fill="#000000" font-family="sans-serif" font-size="13" lengthAdjust="spacing" textLength="179" x="507" y="226.3325">surgeriesOrderedBySeverity</text><text fill="#000000" font-family="sans-serif" font-size="13" lengthAdjust="spacing" textLength="155" x="519" y="241.4653">surgeriesNeedingDoctor</text><text fill="#000000" font-family="sans-serif" font-size="13" lengthAdjust="spacing" textLength="7" x="494.4097" y="278.8321">*</text></g><!--link oop.collections.Main to oop.collections.Surgery--><g id="link_oop.collections.Main_oop.collections.Surgery"><path codeLine="31" d="M198.52,130.18 C228.84,165.39 275.32,217.66 319,260 C331.46,272.08 344.72,284.35 358.17,296.42 " fill="none" id="oop.collections.Main-to-oop.collections.Surgery" style="stroke:#181818;stroke-width:1.0;"/><polygon fill="#181818" points="361.97,299.82,357.9391,290.8338,358.2472,296.4823,352.5987,296.7904,361.97,299.82" style="stroke:#181818;stroke-width:1.0;"/><text fill="#000000" font-family="sans-serif" font-size="13" lengthAdjust="spacing" textLength="133" x="340.5" y="181.0669">HEART_TRANSPLANT</text><text fill="#000000" font-family="sans-serif" font-size="13" lengthAdjust="spacing" textLength="83" x="365.5" y="196.1997">LUNG_X_RAY</text><text fill="#000000" font-family="sans-serif" font-size="13" lengthAdjust="spacing" textLength="140" x="337" y="211.3325">MAKE_PLASTER_CAST</text><text fill="#000000" font-family="sans-serif" font-size="13" lengthAdjust="spacing" textLength="119" x="347.5" y="226.4653">CHANGE_PLASTER</text><text fill="#000000" font-family="sans-serif" font-size="13" lengthAdjust="spacing" textLength="165" x="324.5" y="241.5981">ROUTINE_HEALTH_CHECK</text><text fill="#000000" font-family="sans-serif" font-size="13" lengthAdjust="spacing" textLength="174" x="320" y="256.731">TICK_BORNE_VACCINATION</text></g><text fill="#888888" font-family="sans-serif" font-size="10" lengthAdjust="spacing" textLength="186" x="353" y="565.2822">UMLDoclet 2.1.0, PlantUML 1.2022.14</text><!--SRC=[bLHTRzem57tlhxYgD8aEYBOz8eIKfgWWGgWICsqYA3A9IpCP6za62NNyzzcfoGSD3yi33lUSwtlFkNO001ZU4Rd7AG7EzqxAAIMfoZcJy7vt1_P9APOIeeFO4d62rSg-EMzgHzThpOJQqy-p0UHCDOCgLvGC858YPzic9CcHY5oTMhAoWy2ccnQ84PB99vugBWQmuPmIp1gChksoerDxjd0FYZ_5ZyrvQ2PjYPfcdOVF1Gs2Z0W3jiWmU6ILtCf_id9kuK6boL1QLQLyjyU28Dwn-gxsEjyOsml5Z15HJSy6seVO5MIRIqN4nSIgs97dMPDxOF_3DZuLS4wapvb-GM-OcIbfkg-t6ThiqMrDSvmphSGixVs_IwMTJi_GtMbEvsDUgtLRGoMrd-LoJ_6fxAxJwEOwjzRK7tp4ZhPpwtZ5TF264XZ-TPoB-INpQXZz_WZklzvVmWEGbzenmvI6rbQIHLMyf2n4Pg37q-NOrJ1pahJYZxDKLYziCpNBUfEn6w84XMuGlVXkW6BcBuFdv5SIkhzZDdTduqJ78pGE4qylCVCcRl1S1cCMBfPe6emJlP6F9eat6NkpcA6fDqiU5w46VhgUDmrSD5q4TpNRgkzEQLvjXFem4F5gqChG8HfT3nblf18uLUVwjK2VBaIjR4hCpl3AkLcMSryxH8c27yvtvriFp5oKZi8NxQWiRke_]--></g></svg>