<?xml version="1.0" encoding="UTF-8" standalone="no"?><svg xmlns="http://www.w3.org/2000/svg" xmlns:xlink="http://www.w3.org/1999/xlink" contentStyleType="text/css" height="407px" preserveAspectRatio="none" style="width:282px;height:407px;background:#FFFFFF;" version="1.1" viewBox="0 0 282 407" width="282px" zoomAndPan="magnify"><defs/><g><!--class oop.collections.Surgery--><a href="Surgery.html" target="_top" title="Surgery.html" xlink:actuate="onRequest" xlink:href="Surgery.html" xlink:show="new" xlink:title="Surgery.html" xlink:type="simple"><g id="elem_oop.collections.Surgery"><rect codeLine="5" fill="#F1F1F1" height="249.5" id="oop.collections.Surgery" rx="2.5" ry="2.5" style="stroke:#181818;stroke-width:0.5;" width="268" x="7" y="132"/><ellipse cx="101.75" cy="150.9688" fill="#ADD1B2" rx="11" ry="11" style="stroke:#181818;stroke-width:1.0;"/><path d="M104.7188,156.6094 Q104.1406,156.9063 103.5,157.0469 Q102.8594,157.2031 102.1563,157.2031 Q99.6563,157.2031 98.3281,155.5625 Q97.0156,153.9063 97.0156,150.7813 Q97.0156,147.6563 98.3281,146 Q99.6563,144.3438 102.1563,144.3438 Q102.8594,144.3438 103.5,144.5 Q104.1563,144.6563 104.7188,144.9531 L104.7188,147.6719 Q104.0938,147.0938 103.5,146.8281 Q102.9063,146.5469 102.2813,146.5469 Q100.9375,146.5469 100.25,147.625 Q99.5625,148.6875 99.5625,150.7813 Q99.5625,152.875 100.25,153.9531 Q100.9375,155.0156 102.2813,155.0156 Q102.9063,155.0156 103.5,154.75 Q104.0938,154.4688 104.7188,153.8906 L104.7188,156.6094 Z " fill="#000000"/><text fill="#000000" font-family="sans-serif" font-size="14" lengthAdjust="spacing" textLength="53" x="130.75" y="149.9951">Surgery</text><text fill="#000000" font-family="sans-serif" font-size="10" lengthAdjust="spacing" textLength="70" x="122.25" y="162.5791">oop.collections</text><line style="stroke:#181818;stroke-width:0.5;" x1="8" x2="274" y1="169.9375" y2="169.9375"/><rect fill="none" height="6" style="stroke:#C82930;stroke-width:1.0;" width="6" x="15" y="180.5859"/><text fill="#000000" font-family="sans-serif" font-size="14" lengthAdjust="spacing" textLength="38" x="27" y="186.9326">id: int</text><rect fill="none" height="6" style="stroke:#C82930;stroke-width:1.0;" width="6" x="15" y="196.8828"/><text fill="#000000" font-family="sans-serif" font-size="14" lengthAdjust="spacing" textLength="74" x="27" y="203.2295">title: String</text><rect fill="none" height="6" style="stroke:#C82930;stroke-width:1.0;" width="6" x="15" y="213.1797"/><text fill="#000000" font-family="sans-serif" font-size="14" lengthAdjust="spacing" textLength="79" x="27" y="219.5264">severity: int</text><rect fill="none" height="6" style="stroke:#C82930;stroke-width:1.0;" width="6" x="15" y="229.4766"/><text fill="#000000" font-family="sans-serif" font-size="14" lengthAdjust="spacing" textLength="83" x="27" y="235.8232">duration: int</text><rect fill="none" height="6" style="stroke:#C82930;stroke-width:1.0;" width="6" x="15" y="245.7734"/><text fill="#000000" font-family="sans-serif" font-size="14" lengthAdjust="spacing" textLength="156" x="27" y="252.1201">needsDoctor: boolean</text><line style="stroke:#181818;stroke-width:0.5;" x1="8" x2="274" y1="259.4219" y2="259.4219"/><ellipse cx="18" cy="273.0703" fill="#84BE84" rx="3" ry="3" style="stroke:#038048;stroke-width:1.0;"/><text fill="#000000" font-family="sans-serif" font-size="14" lengthAdjust="spacing" textLength="242" x="27" y="276.417">Surgery(int, String, int, int, boolean)</text><ellipse cx="18" cy="289.3672" fill="#84BE84" rx="3" ry="3" style="stroke:#038048;stroke-width:1.0;"/><text fill="#000000" font-family="sans-serif" font-size="14" lengthAdjust="spacing" textLength="71" x="27" y="292.7139">getId(): int</text><ellipse cx="18" cy="305.6641" fill="#84BE84" rx="3" ry="3" style="stroke:#038048;stroke-width:1.0;"/><text fill="#000000" font-family="sans-serif" font-size="14" lengthAdjust="spacing" textLength="111" x="27" y="309.0107">getTitle(): String</text><ellipse cx="18" cy="321.9609" fill="#84BE84" rx="3" ry="3" style="stroke:#038048;stroke-width:1.0;"/><text fill="#000000" font-family="sans-serif" font-size="14" lengthAdjust="spacing" textLength="113" x="27" y="325.3076">getSeverity(): int</text><ellipse cx="18" cy="338.2578" fill="#84BE84" rx="3" ry="3" style="stroke:#038048;stroke-width:1.0;"/><text fill="#000000" font-family="sans-serif" font-size="14" lengthAdjust="spacing" textLength="118" x="27" y="341.6045">getDuration(): int</text><ellipse cx="18" cy="354.5547" fill="#84BE84" rx="3" ry="3" style="stroke:#038048;stroke-width:1.0;"/><text fill="#000000" font-family="sans-serif" font-size="14" lengthAdjust="spacing" textLength="190" x="27" y="357.9014">getNeedsDoctor(): boolean</text><ellipse cx="18" cy="370.8516" fill="#84BE84" rx="3" ry="3" style="stroke:#038048;stroke-width:1.0;"/><text fill="#000000" font-family="sans-serif" font-size="14" lengthAdjust="spacing" textLength="168" x="27" y="374.1982">compareTo(Surgery): int</text></g></a><!--class java.lang.Comparable--><g id="elem_java.lang.Comparable"><rect codeLine="20" fill="#F1F1F1" height="62.2344" id="java.lang.Comparable" rx="2.5" ry="2.5" style="stroke:#181818;stroke-width:0.5;" width="195" x="43.5" y="10"/><ellipse cx="70.65" cy="28.9688" fill="#B4A7E5" rx="11" ry="11" style="stroke:#181818;stroke-width:1.0;"/><path d="M66.5719,24.7344 L66.5719,22.5781 L73.9625,22.5781 L73.9625,24.7344 L71.4938,24.7344 L71.4938,32.8125 L73.9625,32.8125 L73.9625,34.9688 L66.5719,34.9688 L66.5719,32.8125 L69.0406,32.8125 L69.0406,24.7344 L66.5719,24.7344 Z " fill="#000000"/><text fill="#000000" font-family="sans-serif" font-size="14" font-style="italic" lengthAdjust="spacing" textLength="83" x="87.35" y="27.9951">Comparable</text><text fill="#000000" font-family="sans-serif" font-size="10" font-style="italic" lengthAdjust="spacing" textLength="45" x="106.35" y="40.5791">java.lang</text><rect fill="#FFFFFF" height="15.9688" style="stroke:#181818;stroke-width:1.0;stroke-dasharray:2.0,2.0;" width="51" x="190.5" y="7"/><text fill="#000000" font-family="sans-serif" font-size="12" font-style="italic" lengthAdjust="spacing" textLength="49" x="191.5" y="19.1387">Surgery</text><line style="stroke:#181818;stroke-width:0.5;" x1="44.5" x2="237.5" y1="47.9375" y2="47.9375"/><ellipse cx="54.5" cy="61.5859" fill="#84BE84" rx="3" ry="3" style="stroke:#038048;stroke-width:1.0;"/><text fill="#000000" font-family="sans-serif" font-size="14" font-style="italic" lengthAdjust="spacing" textLength="169" x="63.5" y="64.9326">compareTo(Surgery): int</text></g><!--reverse link java.lang.Comparable to oop.collections.Surgery--><g id="link_java.lang.Comparable_oop.collections.Surgery"><path codeLine="24" d="M141,92.38 C141,104.52 141,118.03 141,131.94 " fill="none" id="java.lang.Comparable-backto-oop.collections.Surgery" style="stroke:#181818;stroke-width:1.0;stroke-dasharray:7.0,7.0;"/><polygon fill="none" points="134,92.21,141,72.21,148,92.21,134,92.21" style="stroke:#181818;stroke-width:1.0;"/></g><text fill="#888888" font-family="sans-serif" font-size="10" lengthAdjust="spacing" textLength="186" x="41" y="396.7822">UMLDoclet 2.1.0, PlantUML 1.2022.14</text><!--SRC=[ZL9DJm8n4BtxAoOa9X2n0UDfGxZ8nKIDoU89EPJkiDHqsqqxa23otsrhmouh9kvXT-VDrvjv0m3Wa43p2btD1UPOSyl9MD16uvLtmqOM25ZLj8UrH5MuBbeXROo78ouKTmvw4oS_CHlVJ_EjBT7kttL2HbDZQYQCKYX86krwm1rqC9QoOB58Vsn3bLekuH2RXETM5Xb8JGr0aXHca9ELkcnWXpkqalQTw6Bhv_JDEh16BDpC2B-235R6AEJwvBr9RFe-PPWQ3I4QyPNY1qr2YVHOz0VdJG8w3sI3eqCt-FB4-5BUBD6-v7jfk0VtB_R2L5vTd9j-cgDLu_WZdpVHhlqXj2HyY6byfR2buWVVSQQuBgD-9uirmPFKPDeIxS1NZYmNTFmNcqjbOVB5s5y7asuGmnImDYPytfwV_4wKl_8xDcQZ8RpwYkHHkFPhTd6Ntm00]--></g></svg>